<svg width="35" height="29" viewBox="0 0 35 29" fill="none" xmlns="http://www.w3.org/2000/svg">
<path d="M1.4 8.31997C1.12311 8.31997 0.852431 8.40207 0.622202 8.55591C0.391974 8.70974 0.212532 8.92839 0.106569 9.18421C0.000606596 9.44002 -0.0271181 9.72152 0.0269012 9.99309C0.0809205 10.2647 0.214258 10.5141 0.410051 10.7099C0.605845 10.9057 0.855301 11.039 1.12687 11.0931C1.39845 11.1471 1.67994 11.1194 1.93576 11.0134C2.19157 10.9074 2.41022 10.728 2.56406 10.4978C2.71789 10.2675 2.8 9.99686 2.8 9.71996C2.8 9.34866 2.6525 8.99257 2.38995 8.73002C2.1274 8.46746 1.7713 8.31997 1.4 8.31997Z" fill="white"/>
<path d="M32.63 11.11C33.3977 11.11 34.02 10.4876 34.02 9.71996C34.02 8.95229 33.3977 8.32996 32.63 8.32996C31.8623 8.32996 31.24 8.95229 31.24 9.71996C31.24 10.4876 31.8623 11.11 32.63 11.11Z" fill="white"/>
<path d="M17.02 2.77996C17.2953 2.78195 17.5651 2.70211 17.7949 2.55058C18.0248 2.39906 18.2046 2.18267 18.3113 1.92886C18.418 1.67505 18.447 1.39526 18.3945 1.12497C18.342 0.854682 18.2104 0.606074 18.0164 0.410677C17.8224 0.21528 17.5748 0.081899 17.3049 0.0274501C17.035 -0.0269989 16.755 -6.24284e-05 16.5004 0.104843C16.2458 0.209749 16.0282 0.387897 15.875 0.616693C15.7218 0.845489 15.64 1.11462 15.64 1.38996C15.64 1.75689 15.7851 2.10893 16.0436 2.36932C16.3021 2.62971 16.6531 2.77732 17.02 2.77996ZM30.43 12.49C29.1805 12.7772 27.9641 13.1927 26.8 13.73C25.3797 14.4114 24.0384 15.2464 22.8 16.22C21.9226 15.1419 21.1648 13.9717 20.54 12.73C19.5429 10.6001 18.7007 8.40102 18.02 6.14996C17.9558 5.93739 17.8227 5.75222 17.6416 5.62367C17.4606 5.49512 17.2419 5.43048 17.02 5.43996C16.7981 5.43048 16.5794 5.49512 16.3984 5.62367C16.2173 5.75222 16.0842 5.93739 16.02 6.14996C15.3409 8.40159 14.4987 10.6007 13.5 12.73C12.8782 13.9703 12.1202 15.1374 11.24 16.21C9.99575 15.2476 8.65528 14.4165 7.24 13.73C6.10421 13.1998 4.91833 12.7844 3.7 12.49C3.51912 12.4465 3.3297 12.4544 3.15304 12.5127C2.97639 12.571 2.81949 12.6774 2.7 12.82C2.5784 12.9673 2.50154 13.1463 2.4785 13.3359C2.45546 13.5256 2.48721 13.7178 2.57 13.89C4.467 18.2034 5.81099 22.7394 6.57 27.39C6.61048 27.6248 6.73346 27.8374 6.91679 27.9896C7.10013 28.1417 7.33177 28.2234 7.57 28.22H26.57C26.8082 28.2234 27.0399 28.1417 27.2232 27.9896C27.4065 27.8374 27.5295 27.6248 27.57 27.39C28.329 22.7394 29.673 18.2034 31.57 13.89C31.6528 13.7178 31.6845 13.5256 31.6615 13.3359C31.6385 13.1463 31.5616 12.9673 31.44 12.82C31.3197 12.6756 31.1611 12.5681 30.9825 12.5097C30.8038 12.4514 30.6124 12.4445 30.43 12.49ZM9.88 24.94C9.66005 24.9419 9.44447 24.8785 9.26062 24.7578C9.07677 24.637 8.93294 24.4644 8.84739 24.2617C8.76184 24.0591 8.73843 23.8356 8.78012 23.6196C8.82182 23.4036 8.92674 23.2049 9.08157 23.0487C9.2364 22.8924 9.43416 22.7857 9.64975 22.7421C9.86533 22.6984 10.089 22.7198 10.2924 22.8035C10.4958 22.8872 10.6698 23.0295 10.7922 23.2123C10.9146 23.395 10.98 23.61 10.98 23.83C10.98 24.1226 10.8644 24.4035 10.6584 24.6113C10.4524 24.8192 10.1727 24.9373 9.88 24.94ZM17.03 24.94C16.7551 24.9138 16.4998 24.7861 16.314 24.5817C16.1282 24.3774 16.0252 24.1111 16.0252 23.835C16.0252 23.5588 16.1282 23.2925 16.314 23.0882C16.4998 22.8839 16.7551 22.7561 17.03 22.73C17.3049 22.7561 17.5602 22.8839 17.746 23.0882C17.9318 23.2925 18.0348 23.5588 18.0348 23.835C18.0348 24.1111 17.9318 24.3774 17.746 24.5817C17.5602 24.7861 17.3049 24.9138 17.03 24.94ZM24.19 24.94C23.97 24.9419 23.7545 24.8785 23.5706 24.7578C23.3868 24.637 23.2429 24.4644 23.1574 24.2617C23.0718 24.0591 23.0484 23.8356 23.0901 23.6196C23.1318 23.4036 23.2367 23.2049 23.3916 23.0487C23.5464 22.8924 23.7442 22.7857 23.9597 22.7421C24.1753 22.6984 24.399 22.7198 24.6024 22.8035C24.8058 22.8872 24.9798 23.0295 25.1022 23.2123C25.2246 23.395 25.29 23.61 25.29 23.83C25.29 24.1226 25.1744 24.4035 24.9684 24.6113C24.7624 24.8192 24.4827 24.9373 24.19 24.94Z" fill="white"/>
</svg>
