<svg width="47" height="29" viewBox="0 0 47 29" fill="none" xmlns="http://www.w3.org/2000/svg">
<g clip-path="url(#clip0_0_1094)">
<path d="M8.50877 28.3467V26.4612C8.50877 25.7382 7.94678 25.267 6.98349 25.267C6.50194 25.267 5.98017 25.3927 5.61891 25.8012C5.3381 25.4555 4.93681 25.267 4.33477 25.267C3.9333 25.267 3.53219 25.3612 3.21097 25.7069V25.3298H2.36816V28.3467H3.21097V26.6811C3.21097 26.147 3.57223 25.8954 4.13422 25.8954C4.69585 25.8954 4.97703 26.1783 4.97703 26.6811V28.3467H5.81983V26.6811C5.81983 26.147 6.22094 25.8954 6.74272 25.8954C7.30471 25.8954 7.58552 26.1783 7.58552 26.6811V28.3467H8.50877ZM20.9902 25.3298H19.6258V24.4185H18.783V25.3298H18.0204V25.9268H18.7828V27.3097C18.7828 28.0011 19.144 28.4096 20.1073 28.4096C20.4686 28.4096 20.8697 28.3154 21.1509 28.1897L20.9099 27.6239C20.6691 27.7496 20.3883 27.7811 20.1876 27.7811C19.7863 27.7811 19.6258 27.5926 19.6258 27.2782V25.9268H20.9902V25.3298ZM28.1341 25.2668C27.6525 25.2668 27.3315 25.4555 27.1308 25.7069V25.3298H26.288V28.3467H27.1308V26.6497C27.1308 26.147 27.4116 25.8641 27.9334 25.8641C28.0939 25.8641 28.2946 25.8956 28.4551 25.9269L28.6959 25.2985C28.5354 25.267 28.2946 25.267 28.1341 25.267M17.3381 25.5813C16.9367 25.3613 16.3748 25.2671 15.7728 25.2671C14.8097 25.2671 14.1676 25.6442 14.1676 26.2413C14.1676 26.7442 14.6492 27.027 15.492 27.1213L15.8933 27.1528C16.3348 27.2155 16.5756 27.3098 16.5756 27.467C16.5756 27.6869 16.2545 27.8441 15.6926 27.8441C15.1307 27.8441 14.6892 27.6869 14.4082 27.5299L14.0069 28.0326C14.4485 28.284 15.0505 28.4097 15.6523 28.4097C16.7761 28.4097 17.4184 28.0013 17.4184 27.4355C17.4184 26.9013 16.8966 26.6184 16.0938 26.5242L15.6926 26.4927C15.3313 26.4612 15.0505 26.3985 15.0505 26.21C15.0505 25.9899 15.3313 25.8642 15.7728 25.8642C16.2545 25.8642 16.7361 26.0213 16.9769 26.1156L17.3381 25.5813ZM39.7328 25.2671C39.2511 25.2671 38.9301 25.4557 38.7293 25.707V25.33H37.8865V28.3469H38.7293V26.6499C38.7293 26.1471 39.0103 25.8642 39.5319 25.8642C39.6926 25.8642 39.8934 25.8957 40.0539 25.9271L40.2947 25.2986C40.1341 25.2671 39.8934 25.2671 39.7328 25.2671ZM28.9769 26.8384C28.9769 27.7498 29.7795 28.4097 31.0238 28.4097C31.5856 28.4097 31.9869 28.3155 32.3882 28.0641L31.9869 27.5299C31.6658 27.7184 31.3448 27.8126 30.9836 27.8126C30.3013 27.8126 29.8197 27.4355 29.8197 26.8384C29.8197 26.2728 30.3013 25.8956 30.9836 25.8642C31.3448 25.8642 31.6658 25.9584 31.9869 26.1471L32.3882 25.6128C31.9869 25.3613 31.5856 25.2671 31.0238 25.2671C29.7795 25.2671 28.9769 25.9271 28.9769 26.8384ZM36.7629 26.8384V25.33H35.9201V25.707C35.6391 25.4243 35.2378 25.2671 34.716 25.2671C33.6325 25.2671 32.7897 25.9271 32.7897 26.8384C32.7897 27.7498 33.6325 28.4097 34.716 28.4097C35.2779 28.4097 35.6793 28.2527 35.9201 27.9698V28.3469H36.7629V26.8384ZM33.6725 26.8384C33.6725 26.3042 34.114 25.8642 34.8363 25.8642C35.5186 25.8642 36.0004 26.2728 36.0004 26.8384C36.0004 27.3727 35.5186 27.8126 34.8363 27.8126C34.114 27.7811 33.6725 27.3727 33.6725 26.8384ZM23.599 25.2671C22.4752 25.2671 21.6725 25.8956 21.6725 26.8384C21.6725 27.7813 22.475 28.4097 23.6391 28.4097C24.2009 28.4097 24.7629 28.284 25.2044 28.0013L24.8029 27.5299C24.4819 27.7184 24.0806 27.8441 23.6793 27.8441C23.1575 27.8441 22.6357 27.6556 22.5153 27.1211H25.3649V26.8699C25.4051 25.8956 24.6828 25.2671 23.599 25.2671ZM23.5989 25.8327C24.1204 25.8327 24.4819 26.0843 24.562 26.5557H22.5553C22.6356 26.1471 22.9968 25.8327 23.5989 25.8327ZM44.5085 26.8384V24.1357H43.6657V25.707C43.3847 25.4243 42.9834 25.2671 42.4616 25.2671C41.3781 25.2671 40.5352 25.9271 40.5352 26.8384C40.5352 27.7498 41.3781 28.4097 42.4616 28.4097C43.0236 28.4097 43.4249 28.2527 43.6657 27.9698V28.3469H44.5085V26.8384ZM41.4183 26.8384C41.4183 26.3042 41.8596 25.8642 42.5821 25.8642C43.2644 25.8642 43.746 26.2728 43.746 26.8384C43.746 27.3727 43.2644 27.8126 42.5821 27.8126C41.8596 27.7811 41.4183 27.3727 41.4183 26.8384ZM13.2442 26.8384V25.33H12.4014V25.707C12.1204 25.4243 11.7191 25.2671 11.1973 25.2671C10.1138 25.2671 9.27095 25.9271 9.27095 26.8384C9.27095 27.7498 10.1138 28.4097 11.1973 28.4097C11.7593 28.4097 12.1606 28.2527 12.4014 27.9698V28.3469H13.2442V26.8384ZM10.1138 26.8384C10.1138 26.3042 10.5553 25.8642 11.2776 25.8642C11.9599 25.8642 12.4416 26.2728 12.4416 26.8384C12.4416 27.3727 11.9599 27.8126 11.2776 27.8126C10.5553 27.7811 10.1138 27.3727 10.1138 26.8384Z" fill="#F0E8E2"/>
<path d="M17.0566 2.41992H29.6987V20.2074H17.0566V2.41992Z" fill="#FF5F00"/>
<path d="M17.8596 11.3136C17.8596 7.69958 20.0268 4.494 23.3578 2.41979C20.9098 0.911341 17.8196 0 14.4484 0C6.46146 0 0 5.05962 0 11.3136C0 17.5674 6.46146 22.6272 14.4482 22.6272C17.8194 22.6272 20.9097 21.7159 23.3578 20.2073C20.0268 18.1645 17.8596 14.9276 17.8596 11.3136Z" fill="#EB001B"/>
<path d="M46.7563 11.3136C46.7563 17.5674 40.2948 22.6272 32.3081 22.6272C28.9368 22.6272 25.8466 21.7159 23.3984 20.2073C26.7697 18.1332 28.8968 14.9276 28.8968 11.3136C28.8968 7.69958 26.7294 4.494 23.3984 2.41979C25.8464 0.911341 28.9368 0 32.3081 0C40.2948 0 46.7563 5.09111 46.7563 11.3136Z" fill="#F79E1B"/>
</g>
<defs>
<clipPath id="clip0_0_1094">
<rect width="46.8023" height="28.4883" fill="white"/>
</clipPath>
</defs>
</svg>
