<svg width="582" height="210" viewBox="0 0 582 210" fill="none" xmlns="http://www.w3.org/2000/svg">
<path d="M220.966 3.73889L144.772 206.83H95.06L57.5695 44.731C55.29 34.7607 53.3258 31.1031 46.3902 26.9036C35.0897 20.049 16.4172 13.6279 0 9.61813L1.1155 3.73889H81.1405C86.37 3.73303 91.429 5.81598 95.4046 9.61174C99.3801 13.4075 102.01 18.666 102.82 24.4381L122.632 141.969L171.569 3.73889H220.966ZM415.766 140.533C415.96 86.9152 349.418 83.9621 349.879 60.0116C350.025 52.7235 356.232 44.9749 369.812 42.9971C385.728 41.3083 401.755 44.4535 416.203 52.1004L424.448 9.02207C410.383 3.11031 395.485 0.054906 380.458 0C333.971 0 301.258 27.6351 300.967 67.1642C300.676 96.3979 324.32 112.681 342.143 122.435C360.476 132.378 366.636 138.772 366.539 147.658C366.417 161.313 351.94 167.301 338.409 167.545C314.765 167.951 301.064 160.419 290.103 154.73L281.591 199.217C292.576 204.852 312.849 209.783 333.874 210C383.271 210 415.597 182.744 415.766 140.533ZM538.495 206.83H582L544.049 3.73889H503.891C499.598 3.68332 495.39 5.07572 491.816 7.73416C488.243 10.3926 485.47 14.1935 483.86 18.6402L413.317 206.83H462.69L472.511 176.486H532.845L538.495 206.83ZM486.043 134.87L510.778 58.6028L525.037 134.87H486.043ZM288.163 3.73889L249.29 206.83H202.245L241.166 3.73889H288.163Z" fill="black"/>
</svg>
