<svg width="50" height="17" viewBox="0 0 50 17" fill="none" xmlns="http://www.w3.org/2000/svg">
<path d="M25.8588 5.4347C25.8303 7.80287 27.8633 9.12433 29.3947 9.91009C30.9682 10.7162 31.4967 11.2332 31.4904 11.9542C31.4787 13.0574 30.2354 13.5444 29.0719 13.5633C27.042 13.5964 25.8617 12.9863 24.9234 12.5248L24.1922 16.1275C25.1336 16.5842 26.8768 16.9825 28.6844 17C32.9275 17 35.7035 14.7947 35.7186 11.3755C35.7352 7.03604 30.0178 6.79585 30.0568 4.85623C30.0703 4.2681 30.6033 3.64048 31.7713 3.4809C32.3494 3.40029 33.9453 3.3386 35.7547 4.21586L36.4648 0.730234C35.4918 0.357201 34.2412 0 32.6842 0C28.6904 0 25.8814 2.23533 25.8588 5.4347ZM43.2887 0.300236C42.5139 0.300236 41.8609 0.776091 41.5695 1.50633L35.5084 16.744H39.7484L40.5922 14.2888H45.7734L46.2629 16.744H50L46.7389 0.300236H43.2887ZM43.8818 4.74231L45.1055 10.9171H41.7543L43.8818 4.74231ZM20.718 0.300442L17.3758 16.7438H21.4162L24.7568 0.300032L20.718 0.300442ZM14.7408 0.300442L10.5354 11.4925L8.83418 1.97601C8.63457 0.913666 7.84629 0.300236 6.9709 0.300236H0.0962891L0 0.777737C1.41133 1.10018 3.01484 1.62025 3.98633 2.17672C4.58086 2.51664 4.75039 2.8138 4.9457 3.62156L8.16777 16.744H12.4375L18.9836 0.300236L14.7408 0.300442Z" fill="url(#paint0_linear_316_55)"/>
<defs>
<linearGradient id="paint0_linear_316_55" x1="2298.7" y1="51.102" x2="2350.51" y2="-1694.67" gradientUnits="userSpaceOnUse">
<stop stop-color="#222357"/>
<stop offset="1" stop-color="#254AA5"/>
</linearGradient>
</defs>
</svg>
