<svg width="284" height="210" viewBox="0 0 284 210" fill="none" xmlns="http://www.w3.org/2000/svg">
<path d="M284 113.653V0H0V210H284V148.731C283.368 148.731 284 113.653 284 113.653Z" fill="#006FCF"/>
<path d="M249.211 101.96H270.717V65.0112H247.313V70.1554L242.885 65.0112H222.645V71.559L218.85 65.0112H181.53C180.266 65.0112 179.001 65.4788 177.736 65.4788C176.472 65.4788 175.839 65.9464 174.573 66.414C173.309 66.8815 172.676 66.8815 171.412 67.3491V65.0112H64.5157L61.354 71.0914L58.19 65.0112H32.8908V71.559L29.0967 65.0112H8.85392L0 80.913V101.96H14.5483L17.0777 96.8147H22.1376L24.6681 101.96H135.992V97.2823L140.418 101.96H171.412V99.1543C172.044 99.6219 173.309 99.6219 173.941 100.089C174.575 100.557 175.839 100.557 176.472 101.025C177.736 101.492 179.002 101.492 180.267 101.492H203.038L205.567 96.3472H210.628L213.158 101.492H244.151V96.8147L249.211 101.96ZM284 148.731V114.12H110.058L105.63 118.797L101.203 114.12H50.6008V151.069H101.203L105.63 146.392L110.058 151.069H141.684V143.118H140.419C144.846 143.118 148.642 142.651 151.804 141.715V151.537H174.575V146.86L179.002 151.537H273.247C277.042 150.602 280.837 150.133 284 148.731Z" fill="white"/>
<path d="M273.247 139.844H256.169V144.989H272.614C279.572 144.989 284 141.716 284 137.038C284 132.361 280.206 130.022 273.88 130.022H266.29C264.393 130.022 263.127 129.087 263.127 127.684C263.127 126.281 264.392 125.345 266.289 125.345H280.837L284 120.2H266.922C259.964 120.2 255.537 123.474 255.537 127.684C255.537 132.361 259.331 134.699 265.656 134.699H273.247C275.144 134.699 276.41 135.635 276.41 137.037C277.042 138.909 275.776 139.844 273.247 139.844ZM242.255 139.844H225.178V144.989H241.622C248.579 144.989 253.006 141.716 253.006 137.038C253.006 132.361 249.212 130.022 242.887 130.022H235.296C233.399 130.022 232.135 129.087 232.135 127.684C232.135 126.281 233.399 125.345 235.296 125.345H249.845L253.006 120.2H235.929C228.971 120.2 224.543 123.474 224.543 127.684C224.543 132.361 228.338 134.699 234.664 134.699H242.254C244.151 134.699 245.416 135.635 245.416 137.037C246.048 138.909 244.151 139.844 242.254 139.844M220.116 124.878V119.733H193.55V144.521H220.116V139.376H201.141V134.232H219.483V129.087H201.141V124.409H220.116V124.878ZM177.105 124.878C180.267 124.878 181.531 126.281 181.531 127.683C181.531 129.087 180.267 130.49 177.105 130.49H167.617V124.409L177.105 124.878ZM167.617 135.635H171.412L181.533 144.521H191.02L179.634 135.167C185.328 134.232 188.489 131.426 188.489 127.684C188.489 123.007 184.063 119.733 177.105 119.733H159.394V144.521H166.984L167.617 135.635ZM147.376 128.152C147.376 130.022 146.111 131.425 142.95 131.425H132.829V124.878H142.316C145.478 124.878 147.376 126.281 147.376 128.151M125.238 119.732V144.52H132.829V136.101H142.949C149.907 136.101 154.966 132.828 154.966 127.683C154.966 123.006 150.54 119.264 143.581 119.264L125.238 119.732ZM113.853 144.52H123.34L110.058 131.892L123.34 119.732H113.853L105.63 127.683L97.4076 119.732H87.9202L101.203 131.892L87.9202 144.053H97.4076L105.63 136.101L113.853 144.52ZM85.3897 124.877V119.732H58.8235V144.52H85.3897V139.375H66.4138V134.231H84.7574V129.086H66.4138V124.409H85.3897V124.877ZM239.091 80.9124L252.374 95.879H261.862V71.0916H254.272V87.461L252.375 85.1231L240.356 71.0916H230.236V95.8798H237.827V79.0421L239.091 80.9124ZM206.201 80.4448L208.73 75.2998L211.261 80.4448L214.422 86.0574H203.038L206.201 80.4448ZM219.483 95.879H227.706L213.159 71.0908H203.038L188.489 95.879H196.712L199.875 90.734H216.32L219.483 95.879ZM184.062 95.879L187.225 90.734H185.328C179.634 90.734 176.472 87.9286 176.472 83.7187V83.2511C176.472 79.0413 179.634 76.235 185.328 76.235H193.55V71.0908H184.695C174.575 71.0908 168.882 76.235 168.882 83.2511V83.7187C168.882 91.2016 174.575 95.879 184.062 95.879ZM155.599 95.879H163.189V71.5592H155.599V95.879ZM139.153 76.235C142.316 76.235 143.581 77.6377 143.581 79.0413C143.581 80.444 142.316 81.8476 139.154 81.8476H129.666V75.7674L139.153 76.235ZM129.666 86.9926H133.46L143.581 95.879H153.069L141.684 86.525C147.376 85.5898 150.539 82.7836 150.539 79.0413C150.539 74.3647 146.111 71.0908 139.153 71.0908H121.443V95.879H129.034L129.666 86.9926ZM115.751 76.235V71.0908H89.1849V95.879H115.751V90.734H96.7752V85.5898H115.118V80.4448H96.7752V75.7674H115.751V76.235ZM58.1912 95.879H65.1492L74.6365 75.7674V95.879H82.2269V71.0916H69.5767L61.9863 87.9286L54.396 71.0916H41.7458V95.8798H49.3361V75.7682L58.1912 95.879ZM17.0777 80.4448L19.6071 75.2998L22.1376 80.4448L25.3004 86.0574H13.9149L17.0777 80.4448ZM30.3603 95.879H38.5841L24.0357 71.0916H14.5483L0 95.8798H8.22269L11.3844 90.7348H27.8309L30.3603 95.879Z" fill="#006FCF"/>
</svg>
