<svg width="512" height="210" viewBox="0 0 512 210" fill="none" xmlns="http://www.w3.org/2000/svg">
<path d="M93.5512 27.0741C87.5512 34.1666 77.9492 39.7626 68.3482 38.9624C67.1482 29.3727 71.8482 19.1815 77.3492 12.8873C83.3492 5.59503 93.8512 0.399574 102.352 0C103.352 9.99034 99.4512 19.7809 93.5512 27.0741ZM102.253 40.8614C88.3512 40.0623 76.4502 48.753 69.8492 48.753C63.1492 48.753 53.0472 41.261 42.0462 41.4608C27.7452 41.6606 14.4432 49.7519 7.1422 62.6402C-7.8598 88.4157 3.2422 126.58 17.7432 147.56C24.8442 157.95 33.3452 169.338 44.5462 168.939C55.1482 168.539 59.3482 162.046 72.1502 162.046C85.0512 162.046 88.7522 168.939 99.9532 168.739C111.554 168.539 118.855 158.35 125.956 147.959C134.056 136.171 137.357 124.681 137.557 124.082C137.357 123.882 115.155 115.391 114.955 89.8142C114.755 68.435 132.457 58.2449 133.257 57.6455C123.255 42.8593 107.654 41.261 102.253 40.8614ZM182.563 11.8883V167.641H206.765V114.392H240.269C270.872 114.392 292.375 93.4124 292.375 63.0408C292.375 32.6702 271.272 11.8893 241.069 11.8893L182.563 11.8883ZM206.765 32.2696H234.668C255.671 32.2696 267.672 43.4586 267.672 63.1397C267.672 82.8207 255.671 94.1106 234.568 94.1106H206.765V32.2696ZM336.579 168.839C351.781 168.839 365.882 161.147 372.283 148.958H372.783V167.64H395.186V90.1139C395.186 67.6359 377.184 53.1493 349.48 53.1493C323.777 53.1493 304.775 67.8356 304.075 88.0161H325.878C327.678 78.4253 336.578 72.1311 348.78 72.1311C363.582 72.1311 371.883 79.0247 371.883 91.7132V100.304L341.679 102.102C313.576 103.8 298.375 115.29 298.375 135.272C298.375 155.452 314.076 168.839 336.579 168.839ZM343.079 150.357C330.179 150.357 321.977 144.163 321.977 134.671C321.977 124.882 329.878 119.187 344.98 118.288L371.883 116.59V125.38C371.883 139.967 359.482 150.357 343.08 150.357M425.09 210C448.693 210 459.794 201.01 469.495 173.735L511.999 54.6477H487.396L458.893 146.66H458.393L429.89 54.6477H404.587L445.591 168.04L443.391 174.933C439.691 186.622 433.69 191.118 422.989 191.118C421.089 191.118 417.389 190.918 415.888 190.719V209.401C417.288 209.8 423.288 210 425.089 210" fill="black"/>
</svg>
