<svg width="284" height="210" viewBox="0 0 284 210" fill="none" xmlns="http://www.w3.org/2000/svg">
<path d="M51.6805 209.535V195.597C51.6805 190.253 48.2669 186.77 42.4158 186.77C39.4908 186.77 36.3215 187.699 34.1272 190.719C32.4215 188.163 29.984 186.77 26.3272 186.77C23.8886 186.77 21.4522 187.466 19.5011 190.021V187.234H14.3818V209.535H19.5011V197.222C19.5011 193.274 21.6954 191.415 25.109 191.415C28.5204 191.415 30.2283 193.506 30.2283 197.222V209.535H35.3476V197.222C35.3476 193.274 37.784 191.415 40.9533 191.415C44.3669 191.415 46.0726 193.506 46.0726 197.222V209.535H51.6805ZM127.494 187.234H119.206V180.498H114.087V187.234H109.455V191.647H114.086V201.869C114.086 206.98 116.28 209.999 122.131 209.999C124.326 209.999 126.762 209.303 128.47 208.374L127.006 204.192C125.544 205.121 123.838 205.354 122.619 205.354C120.181 205.354 119.206 203.96 119.206 201.636V191.647H127.494V187.234ZM170.887 186.769C167.962 186.769 166.012 188.163 164.792 190.021V187.234H159.673V209.535H164.792V196.991C164.792 193.274 166.498 191.183 169.667 191.183C170.642 191.183 171.862 191.416 172.837 191.648L174.299 187.002C173.324 186.77 171.862 186.77 170.887 186.77M105.311 189.093C102.872 187.467 99.4598 186.771 95.803 186.771C89.953 186.771 86.053 189.558 86.053 193.972C86.053 197.689 88.978 199.779 94.0973 200.476L96.5348 200.709C99.2166 201.173 100.679 201.87 100.679 203.032C100.679 204.657 98.7291 205.819 95.3155 205.819C91.903 205.819 89.2212 204.657 87.5144 203.496L85.0769 207.213C87.7587 209.071 91.4155 210 95.0712 210C101.897 210 105.798 206.981 105.798 202.799C105.798 198.85 102.629 196.759 97.753 196.063L95.3155 195.83C93.1212 195.597 91.4155 195.134 91.4155 193.74C91.4155 192.113 93.1212 191.184 95.803 191.184C98.7291 191.184 101.654 192.345 103.117 193.043L105.311 189.093ZM241.339 186.771C238.412 186.771 236.462 188.164 235.243 190.022V187.235H230.124V209.536H235.243V196.992C235.243 193.275 236.95 191.184 240.118 191.184C241.094 191.184 242.314 191.417 243.289 191.649L244.751 187.003C243.776 186.771 242.314 186.771 241.339 186.771ZM176.006 198.385C176.006 205.122 180.881 210 188.439 210C191.851 210 194.289 209.304 196.726 207.446L194.289 203.496C192.339 204.89 190.389 205.586 188.195 205.586C184.05 205.586 181.125 202.799 181.125 198.385C181.125 194.204 184.05 191.416 188.195 191.184C190.389 191.184 192.339 191.881 194.289 193.275L196.726 189.326C194.289 187.467 191.851 186.771 188.439 186.771C180.881 186.771 176.006 191.649 176.006 198.385ZM223.299 198.385V187.235H218.18V190.022C216.473 187.933 214.035 186.771 210.866 186.771C204.284 186.771 199.165 191.649 199.165 198.385C199.165 205.122 204.284 210 210.866 210C214.278 210 216.717 208.839 218.18 206.748V209.536H223.299V198.385ZM204.527 198.385C204.527 194.436 207.209 191.184 211.597 191.184C215.741 191.184 218.667 194.204 218.667 198.385C218.667 202.335 215.741 205.586 211.597 205.586C207.209 205.354 204.527 202.335 204.527 198.385ZM143.34 186.771C136.514 186.771 131.638 191.416 131.638 198.385C131.638 205.355 136.513 210 143.583 210C146.996 210 150.409 209.071 153.091 206.981L150.653 203.496C148.703 204.89 146.265 205.819 143.828 205.819C140.658 205.819 137.489 204.426 136.757 200.475H154.066V198.618C154.311 191.416 149.923 186.771 143.34 186.771ZM143.339 190.952C146.507 190.952 148.703 192.811 149.189 196.295H137C137.488 193.275 139.682 190.952 143.339 190.952ZM270.346 198.385V178.408H265.227V190.022C263.52 187.933 261.083 186.771 257.913 186.771C251.332 186.771 246.212 191.649 246.212 198.385C246.212 205.122 251.332 210 257.913 210C261.327 210 263.765 208.839 265.227 206.748V209.536H270.346V198.385ZM251.576 198.385C251.576 194.436 254.257 191.184 258.645 191.184C262.79 191.184 265.715 194.204 265.715 198.385C265.715 202.335 262.79 205.586 258.645 205.586C254.257 205.354 251.576 202.335 251.576 198.385ZM80.444 198.385V187.235H75.3247V190.022C73.6179 187.933 71.1804 186.771 68.0111 186.771C61.4293 186.771 56.31 191.649 56.31 198.385C56.31 205.122 61.4293 210 68.0111 210C71.4247 210 73.8622 208.839 75.3247 206.748V209.536H80.444V198.385ZM61.4293 198.385C61.4293 194.436 64.1111 191.184 68.4986 191.184C72.6429 191.184 75.569 194.204 75.569 198.385C75.569 202.335 72.6429 205.586 68.4986 205.586C64.1111 205.354 61.4293 202.335 61.4293 198.385Z" fill="black"/>
<path d="M103.606 17.8867H180.396V149.368H103.606V17.8867Z" fill="#FF5F00"/>
<path d="M108.481 83.6281C108.481 56.9139 121.645 33.2188 141.878 17.8867C127.008 6.73647 108.238 0 87.7608 0C39.2475 0 0 37.3998 0 83.6281C0 129.855 39.2475 167.256 87.7597 167.256C108.237 167.256 127.007 160.52 141.878 149.368C121.645 134.269 108.481 110.342 108.481 83.6281Z" fill="#EB001B"/>
<path d="M283.999 83.6281C283.999 129.855 244.751 167.256 196.239 167.256C175.762 167.256 156.991 160.52 142.121 149.368C162.598 134.037 175.519 110.342 175.519 83.6281C175.519 56.9139 162.354 33.2188 142.121 17.8867C156.99 6.73647 175.762 0 196.239 0C244.751 0 283.999 37.6326 283.999 83.6281Z" fill="#F79E1B"/>
</svg>
