<svg width="192" height="210" viewBox="0 0 192 210" fill="none" xmlns="http://www.w3.org/2000/svg">
<path d="M163.476 15.8347C152.985 4.75159 134.021 0 109.761 0H39.3517C36.9514 8.23795e-05 34.6298 0.793819 32.8044 2.23851C30.979 3.6832 29.7695 5.68407 29.3933 7.88139L0.0760787 180.225C-0.506652 183.623 2.33247 186.701 6.04869 186.701H49.5171L60.4339 122.52L60.0951 124.529C60.8728 119.993 65.0588 116.647 70.0158 116.647H90.6719C131.251 116.647 163.025 101.369 172.306 57.176C172.582 55.869 172.82 54.5968 173.027 53.354C171.855 52.779 171.855 52.779 173.027 53.354C175.79 37.0197 173.008 25.901 163.476 15.8347Z" fill="#27346A"/>
<path d="M77.0666 47.4698C78.2549 46.9453 79.5547 46.6735 80.8709 46.6743H136.071C142.607 46.6743 148.704 47.0685 154.275 47.8997C155.834 48.1301 157.385 48.4051 158.926 48.7245C161.11 49.1711 163.268 49.7177 165.393 50.3623C168.132 51.2102 170.683 52.1977 173.027 53.354C175.79 37.0134 173.008 25.901 163.476 15.8347C152.979 4.75159 134.021 0 109.761 0H39.3457C34.3879 0 30.1703 3.34544 29.3933 7.88139L0.0760828 180.218C-0.506648 183.622 2.33247 186.696 6.04267 186.696H49.5171L72.1661 53.5689C72.3888 52.2604 72.9511 51.0216 73.8048 49.9592C74.6584 48.8967 75.7778 48.0424 77.0666 47.4698Z" fill="#27346A"/>
<path d="M172.306 57.1761C163.024 101.363 131.251 116.647 90.6716 116.647H70.0095C65.0525 116.647 60.8657 119.993 60.0955 124.529L46.5143 204.331C46.0068 207.305 48.4883 210 51.7348 210H88.3775C90.4765 209.999 92.5065 209.305 94.1023 208.041C95.6981 206.777 96.7551 205.027 97.0831 203.105L97.44 201.375L104.346 160.805L104.791 158.563C105.119 156.641 106.176 154.891 107.772 153.628C109.367 152.364 111.397 151.669 113.496 151.668H118.98C154.476 151.668 182.27 138.302 190.392 99.6445C193.783 83.4895 192.028 70.0016 183.06 60.5278C180.34 57.6583 176.962 55.2884 173.026 53.354C172.813 54.6031 172.582 55.869 172.306 57.1761Z" fill="#2790C3"/>
<path d="M163.313 49.7641C161.866 49.3724 160.405 49.0256 158.933 48.7243C157.392 48.4102 155.841 48.137 154.283 47.905C148.705 47.0683 142.613 46.6734 136.07 46.6734H80.8773C79.5601 46.6706 78.2594 46.9447 77.073 47.4752C75.7828 48.0461 74.6622 48.8998 73.8081 49.9626C72.9541 51.0253 72.3924 52.265 72.1718 53.5743L60.4404 122.519L60.1016 124.529C60.8733 119.993 65.0593 116.646 70.017 116.646H90.6791C131.258 116.646 163.031 101.369 172.313 57.1758C172.589 55.8688 172.821 54.6022 173.034 53.3538C170.683 52.2037 168.139 51.21 165.4 50.3677C164.708 50.1553 164.013 49.9541 163.314 49.7641" fill="#1F264F"/>
</svg>
